<svg width="512" height="512" viewBox="0 0 512 512" fill="none" xmlns="http://www.w3.org/2000/svg">
<rect width="512" height="512"/>
<path d="M512 256C512 114.615 397.385 0 256 0C114.615 0 0 114.615 0 256C0 256 0 256 256 256C512 256 507 256 512 256Z" fill="#6DBE75"/>
<path d="M512 256C512 397.385 397.385 512 256 512C114.615 512 0 397.385 0 256C0 256 0 256 256 256C512 256 507 256 512 256Z" fill="#D26565"/>
<circle cx="258" cy="256" r="210" fill="#302C2C"/>
<path d="M328.75 177C326.875 161.167 319.271 148.875 305.938 140.125C292.604 131.375 276.25 127 256.875 127C242.708 127 230.313 129.292 219.688 133.875C209.167 138.458 200.938 144.76 195 152.781C189.167 160.802 186.25 169.917 186.25 180.125C186.25 188.667 188.281 196.01 192.344 202.156C196.51 208.198 201.823 213.25 208.281 217.312C214.74 221.271 221.51 224.552 228.594 227.156C235.677 229.656 242.188 231.687 248.125 233.25L280.625 242C288.958 244.187 298.229 247.208 308.438 251.062C318.75 254.917 328.594 260.177 337.969 266.844C347.448 273.406 355.26 281.844 361.406 292.156C367.552 302.469 370.625 315.125 370.625 330.125C370.625 347.417 366.094 363.042 357.031 377C348.073 390.958 334.948 402.052 317.656 410.281C300.469 418.51 279.583 422.625 255 422.625C232.083 422.625 212.24 418.927 195.469 411.531C178.802 404.135 165.677 393.823 156.094 380.594C146.615 367.365 141.25 352 140 334.5H180C181.042 346.583 185.104 356.583 192.188 364.5C199.375 372.312 208.438 378.146 219.375 382C230.417 385.75 242.292 387.625 255 387.625C269.792 387.625 283.073 385.229 294.844 380.437C306.615 375.542 315.938 368.771 322.813 360.125C329.688 351.375 333.125 341.167 333.125 329.5C333.125 318.875 330.156 310.229 324.219 303.562C318.281 296.896 310.469 291.479 300.781 287.313C291.094 283.146 280.625 279.5 269.375 276.375L230 265.125C205 257.937 185.208 247.677 170.625 234.344C156.042 221.01 148.75 203.562 148.75 182C148.75 164.083 153.594 148.458 163.281 135.125C173.073 121.687 186.198 111.271 202.656 103.875C219.219 96.375 237.708 92.625 258.125 92.625C278.75 92.625 297.083 96.3229 313.125 103.719C329.167 111.01 341.875 121.01 351.25 133.719C360.729 146.427 365.729 160.854 366.25 177H328.75Z" fill="white"/>
<path d="M451 237H512V256V275H451V237Z" fill="#302C2C"/>
<path d="M61 275H0V256V237H61V275Z" fill="#302C2C"/>
<circle cx="258" cy="183" r="26" fill="#D26565"/>
<circle cx="256" cy="330" r="26" fill="#6DBE75"/>
</svg>
